HIERARCHY
ROOT Hips
{
	OFFSET 0.000000 0.000000 0.000000 
	CHANNELS 6 Xposition Yposition Zposition Xrotation Yrotation Zrotation
	JOINT Spine
	{
		OFFSET 0.000000 1.152660 1.729000 
		CHANNELS 3 Xrotation Yrotation Zrotation
		JOINT Spine1
		{
			OFFSET 0.000000 0.400320 2.270310 
			CHANNELS 3 Xrotation Yrotation Zrotation
			JOINT Spine2
			{
				OFFSET 0.000000 0.200920 2.296560 
				CHANNELS 3 Xrotation Yrotation Zrotation
				JOINT Spine3
				{
					OFFSET 0.000000 0.000000 2.305330 
					CHANNELS 3 Xrotation Yrotation Zrotation
					JOINT Neck
					{
						OFFSET 0.000000 -0.864490 6.051490 
						CHANNELS 3 Xrotation Yrotation Zrotation
						JOINT Head
						{
							OFFSET 0.000000 -0.550430 3.121670 
							CHANNELS 3 Xrotation Yrotation Zrotation
							End Site
							{
								OFFSET 0.000000 0.000000 3.731750 
							}
						}
					}
					JOINT RightShoulder
					{
						OFFSET -0.788280 -1.313800 4.256720 
						CHANNELS 3 Xrotation Yrotation Zrotation
						JOINT RightArm
						{
							OFFSET -3.915130 0.000000 0.000000 
							CHANNELS 3 Xrotation Yrotation Zrotation
							JOINT RightForeArm
							{
								OFFSET -6.914910 0.000000 0.000000 
								CHANNELS 3 Xrotation Yrotation Zrotation
								JOINT RightHand
								{
									OFFSET -6.096220 0.000000 0.000000 
									CHANNELS 3 Xrotation Yrotation Zrotation
									JOINT RightHandEnd
									{
										OFFSET -1.749950 0.000000 0.000000 
										CHANNELS 3 Xrotation Yrotation Zrotation
										End Site
										{
											OFFSET -1.749950 0.000000 0.000000 
										}
									}
									JOINT RightHandThumb1
									{
										OFFSET -0.699980 -1.166630 -0.466650 
										CHANNELS 3 Yrotation Xrotation Zrotation
										End Site
										{
											OFFSET -1.690320 -0.452920 0.000000 
										}
									}
								}
							}
						}
					}
					JOINT LeftShoulder
					{
						OFFSET 0.788280 -1.313800 4.256720 
						CHANNELS 3 Xrotation Yrotation Zrotation
						JOINT LeftArm
						{
							OFFSET 3.915130 0.000000 0.000000 
							CHANNELS 3 Xrotation Yrotation Zrotation
							JOINT LeftForeArm
							{
								OFFSET 6.914910 0.000000 0.000000 
								CHANNELS 3 Xrotation Yrotation Zrotation
								JOINT LeftHand
								{
									OFFSET 6.096220 0.000000 0.000000 
									CHANNELS 3 Xrotation Yrotation Zrotation
									JOINT LeftHandEnd
									{
										OFFSET 1.749950 0.000000 0.000000 
										CHANNELS 3 Xrotation Yrotation Zrotation
										End Site
										{
											OFFSET 1.749950 0.000000 0.000000 
										}
									}
									JOINT LeftHandThumb1
									{
										OFFSET 0.699980 -1.166630 -0.466650 
										CHANNELS 3 Yrotation Xrotation Zrotation
										End Site
										{
											OFFSET 1.690320 -0.452920 0.000000 
										}
									}
								}
							}
						}
					}
				}
			}
		}
	}
	JOINT RightUpLeg
	{
		OFFSET -2.338570 0.000000 -0.683180 
		CHANNELS 3 Xrotation Yrotation Zrotation
		JOINT RightLeg
		{
			OFFSET 0.000000 0.000000 -10.744960 
			CHANNELS 3 Xrotation Yrotation Zrotation
			JOINT RightFoot
			{
				OFFSET 0.000000 0.000000 -10.930850 
				CHANNELS 3 Xrotation Yrotation Zrotation
				JOINT RightToeBase
				{
					OFFSET 0.000000 -4.087270 -1.487650 
					CHANNELS 3 Xrotation Yrotation Zrotation
					End Site
					{
						OFFSET 0.000000 -1.891870 -0.000000 
					}
				}
			}
		}
	}
	JOINT LeftUpLeg
	{
		OFFSET 2.338570 0.000000 -0.683180 
		CHANNELS 3 Xrotation Yrotation Zrotation
		JOINT LeftLeg
		{
			OFFSET 0.000000 0.000000 -10.744960 
			CHANNELS 3 Xrotation Yrotation Zrotation
			JOINT LeftFoot
			{
				OFFSET 0.000000 0.000000 -10.930850 
				CHANNELS 3 Xrotation Yrotation Zrotation
				JOINT LeftToeBase
				{
					OFFSET 0.000000 -4.087270 -1.487650 
					CHANNELS 3 Xrotation Yrotation Zrotation
					End Site
					{
						OFFSET 0.000000 -1.891870 -0.000000 
					}
				}
			}
		}
	}
}
MOTION
Frames: 9
Frame Time: 0.133849
-3.343600 83.524803 24.663799 -5.283400 4.627800 77.830498 -1.843800 8.355100 0.361200 -2.124800 0.409600 -0.080900 13.891100 0.256000 -3.485500 -2.971800 0.407600 -1.599400 -16.768600 6.560900 1.816300 8.087700 3.766400 -0.364500 -4.293100 -13.383300 8.524300 -25.550301 -1.838100 21.554100 0.000000 0.000000 31.427900 -13.887600 1.579200 4.257200 0.000000 -0.000000 0.000000 -0.000000 0.000000 0.000000 -3.927400 10.349200 -8.829700 9.384200 11.765300 -70.628799 -0.000000 0.000000 1.953400 0.470200 -1.435600 -8.329100 -0.000000 -0.000000 0.000000 0.000000 -0.000000 -0.000000 -20.802299 15.299100 -2.605600 16.903601 0.000000 0.000000 6.071800 1.286100 4.766300 -1.349200 0.000000 -0.000000 -2.633500 -8.256500 21.219400 2.808900 0.000000 0.000000 -5.433500 1.820500 5.069000 -4.978800 0.000000 -0.000000 
-3.056600 83.792999 24.496000 -1.779600 4.059000 58.243198 -2.441600 7.215100 0.550800 -2.597600 -0.154200 -0.204700 13.952100 2.550600 -4.423700 -3.833400 1.767500 -2.278900 -19.401400 12.434100 7.112000 6.616700 9.240000 4.997000 -8.005600 -13.089800 7.829200 -29.117100 -0.534500 25.115601 -0.000000 0.000000 42.913101 -7.202600 2.875700 7.389200 0.000000 0.000000 0.000000 0.000000 -0.000000 -0.000000 -3.940700 8.517400 -9.067600 11.956000 13.233300 -76.111900 -0.000000 0.000000 4.202300 1.547700 0.198300 -5.154700 -0.000000 -0.000000 -0.000000 0.000000 0.000000 -0.000000 -20.972401 16.991699 -13.392800 15.425200 0.000000 0.000000 6.783100 1.115800 5.534200 -2.527800 0.000000 -0.000000 -0.682700 -4.673100 30.984100 6.644600 0.000000 0.000000 -9.545600 0.004300 14.631100 -4.306400 0.000000 -0.000000 
-2.705800 83.664398 24.158300 2.900800 3.531100 38.756901 -1.683500 3.678700 -0.045300 -1.921100 -1.076700 -0.484400 11.516800 3.748000 -5.990200 -4.885800 3.953800 -3.180200 -26.262199 15.890100 11.819900 1.741300 12.248600 8.489600 -7.990000 -10.863900 8.697800 -37.068401 -1.616700 27.255199 -0.000000 0.000100 56.024300 -4.302800 7.228500 10.271400 0.000000 -0.000000 -0.000000 -0.000000 0.000000 -0.000000 -2.968000 5.348800 -9.239900 11.781900 15.748300 -74.836700 -0.000000 0.000000 5.569600 2.124300 1.303700 -3.583200 -0.000000 -0.000000 0.000000 0.000000 0.000000 -0.000000 -23.591999 10.447800 -24.218300 15.004000 0.000000 0.000000 4.772800 -0.126400 -6.665700 -1.374400 0.000000 -0.000000 -3.813200 -3.173100 36.066101 16.748301 0.000000 0.000000 -15.947900 0.486600 25.430099 -3.151900 0.000000 -0.000000 
-2.342900 82.354401 23.947300 5.473500 3.558500 21.041599 -1.005200 -0.904600 0.231700 -1.527700 -2.027800 -0.707500 10.939200 1.887400 -6.398700 -5.869400 4.928200 -3.275100 -33.473900 14.809000 14.155100 -5.283800 9.869300 8.964900 -7.648900 -8.072500 12.109300 -42.907501 -10.054900 26.924000 -0.000000 0.000100 63.123798 -3.757100 9.608300 10.955500 0.000000 -0.000000 -0.000000 0.000000 -0.000000 -0.000000 -1.423800 5.136900 -11.407200 12.316700 14.605000 -70.624199 -0.000000 0.000000 4.950000 -0.109700 2.570500 -4.160300 -0.000000 -0.000000 0.000000 -0.000000 0.000000 -0.000000 -25.256300 0.680900 -12.895700 16.401300 0.000000 0.000000 2.562500 2.721500 -3.142000 -0.356300 0.000000 -0.000000 -2.915400 -7.656500 28.827600 28.572701 0.000000 0.000000 -17.954100 11.095100 23.384199 -6.694100 0.000000 -0.000000 
-2.368300 80.061798 23.905899 4.283600 -0.277900 4.770300 -0.637800 -0.396500 0.404000 -1.341900 -0.483300 -0.169300 10.052000 4.009300 -2.830400 -5.132000 2.830600 -1.953200 -29.793699 1.567000 9.366400 -9.796700 1.410700 10.799000 -2.817200 -2.665600 14.849700 -36.700001 -22.044901 30.123501 -0.000000 0.000100 49.351299 -5.395500 11.335100 8.620700 -0.000000 -0.000000 0.000000 -0.000000 0.000000 -0.000000 -2.076900 2.277000 -14.330900 8.954800 18.748301 -67.437798 -0.000000 0.000000 4.046700 2.091800 4.507700 -5.798700 0.000000 -0.000000 0.000000 0.000000 -0.000000 0.000000 -23.521900 -3.461700 1.129600 26.132700 0.000000 0.000000 -6.487100 4.607800 -1.382600 0.268500 0.000000 0.000000 2.862800 -13.498000 12.250800 37.920101 0.000000 0.000000 4.278800 16.235399 -14.259500 -14.363800 0.000000 -0.000000 
-2.615200 78.341904 23.937500 1.274800 0.352500 -0.926300 -0.687700 -1.487200 0.399700 -1.511800 -0.562900 0.099800 11.367800 3.249500 2.002000 -3.551900 1.836800 -0.192500 -27.711300 4.070300 8.206600 -8.085400 1.581700 7.214700 0.566200 -1.441900 17.094101 -26.546600 -21.752100 33.768299 0.000000 0.000000 36.472000 -8.190300 10.275800 5.076200 0.000000 0.000000 0.000000 -0.000000 0.000000 0.000000 -5.385200 -3.808900 -18.047800 5.027100 19.918301 -67.430496 -0.000000 0.000000 1.393600 3.081700 1.412500 -5.945000 0.000000 0.000000 -0.000000 0.000000 -0.000000 0.000000 -16.026699 -6.453000 4.048300 26.201099 0.000000 0.000000 -10.714600 6.052300 0.883300 0.287000 0.000000 0.000000 -5.019000 -20.771299 -7.075900 45.380798 0.000000 0.000000 0.894600 12.000300 -13.352400 -11.015300 0.000000 -0.000000 
-2.373600 77.050201 23.987900 -1.663000 0.346300 -4.248200 0.470500 -3.422500 0.465300 -0.978400 -0.626500 0.258900 11.440500 3.125000 5.991700 -2.814100 1.287700 1.153500 -25.566401 4.578000 7.929400 -5.982100 0.682600 6.048900 1.799700 -0.772300 19.154301 -12.636100 -24.869600 40.716099 0.000000 0.000000 20.095200 -12.888600 6.138300 1.945200 0.000000 -0.000000 -0.000000 0.000000 -0.000000 -0.000000 -9.637500 -8.459700 -20.027599 4.229300 21.017799 -68.526001 -0.000000 0.000000 0.917500 3.298000 3.442500 -6.034800 0.000000 0.000000 0.000000 0.000000 -0.000000 -0.000000 -9.149600 -5.954400 6.353200 25.464600 0.000000 0.000000 -13.901500 5.753000 2.504800 0.348800 0.000000 0.000000 -13.656100 -24.428400 -2.296900 28.993601 0.000000 0.000000 0.962200 8.774400 -8.235300 -9.964000 0.000000 -0.000000 
-1.676500 75.664803 23.893700 -4.688200 0.960800 -2.852100 1.616700 -4.846200 0.055700 -0.438600 0.600000 0.303300 11.582800 0.610200 6.775800 -2.134800 -0.580400 2.154900 -22.002399 1.302700 4.975600 -4.562500 -0.487100 5.311800 2.994100 -2.184500 17.309799 0.225100 -25.090200 48.498901 0.000000 0.000000 13.897400 -13.307700 2.829900 -0.508100 0.000000 -0.000000 -0.000000 0.000000 -0.000000 0.000000 -12.845100 -12.111600 -21.159800 2.824700 22.538200 -69.217201 -0.000000 -0.000000 -1.227600 1.961800 4.022500 -6.082000 0.000000 -0.000000 0.000000 0.000000 -0.000000 0.000000 -2.285500 -4.509400 6.518200 25.590200 0.000000 0.000000 -18.206100 4.964800 1.675700 0.764400 0.000000 0.000000 -17.936300 -18.479300 -1.434400 2.267800 0.000000 0.000000 13.981400 15.924900 -9.551200 -13.380000 0.000000 -0.000000 
-1.122500 74.042702 23.770399 -6.854700 6.696900 -4.491000 2.858900 -4.653400 -0.259800 0.056900 0.235800 0.212600 12.544200 -4.709100 6.089500 -1.689000 -3.898100 3.607200 -21.063299 -2.350000 1.586200 -4.617200 -0.525700 5.412500 3.838500 -7.201500 14.648100 3.098800 -25.706699 54.003300 0.000000 0.000000 15.322900 -8.917300 0.306100 -1.012000 0.000000 -0.000000 0.000000 0.000000 0.000000 0.000000 -15.151700 -15.707700 -24.120600 3.343900 20.492901 -66.400299 -0.000000 -0.000000 -1.077500 -0.779700 5.971500 -5.078400 0.000000 0.000000 -0.000000 -0.000000 0.000000 0.000000 8.555700 -7.274100 6.324400 17.399300 0.000000 0.000000 -18.580799 3.349700 4.837800 0.927500 0.000000 0.000000 -24.082399 -18.325199 4.507600 11.442800 0.000000 0.000000 10.381700 10.653900 -7.598100 -13.092000 0.000000 -0.000000 
